<svg width="96" height="96" viewBox="0 0 96 96" fill="none" xmlns="http://www.w3.org/2000/svg">
<rect width="96" height="96" rx="6" fill="#F8FBFF"/>
<path d="M33.4167 68.8337H62.5833C64.8812 68.8337 66.75 66.9649 66.75 64.667V35.5003C66.75 33.2024 64.8812 31.3337 62.5833 31.3337H58.4167V27.167H54.25V31.3337H41.75V27.167H37.5833V31.3337H33.4167C31.1187 31.3337 29.25 33.2024 29.25 35.5003V64.667C29.25 66.9649 31.1187 68.8337 33.4167 68.8337ZM45.9167 61.3628L38.1938 53.6399L41.1396 50.6941L45.9167 55.4712L54.8604 46.5274L57.8062 49.4732L45.9167 61.3628ZM33.4167 37.5837H62.5833V41.7503H33.4167V37.5837Z" fill="#2029BD"/>
</svg>
