<svg width="96" height="96" viewBox="0 0 96 96" fill="none" xmlns="http://www.w3.org/2000/svg">
<rect width="96" height="96" rx="6" fill="#F8FBFF"/>
<path d="M60.5 45.9165H53.875C53 43.4998 50.7083 41.7498 48 41.7498C45.2917 41.7498 43 43.4998 42.125 45.9165H35.5C34.8125 45.9165 31.3333 45.7082 31.3333 41.7498V39.6665C31.3333 35.854 34.5417 35.4998 35.5 35.4998H56.7083C57.5833 37.9165 59.875 39.6665 62.5833 39.6665C64.2409 39.6665 65.8307 39.008 67.0028 37.8359C68.1749 36.6638 68.8333 35.0741 68.8333 33.4165C68.8333 31.7589 68.1749 30.1692 67.0028 28.9971C65.8307 27.825 64.2409 27.1665 62.5833 27.1665C59.875 27.1665 57.5833 28.9165 56.7083 31.3332H35.5C32.1458 31.3332 27.1667 33.5415 27.1667 39.6665V41.7498C27.1667 47.8748 32.1458 50.0832 35.5 50.0832H42.125C43 52.4998 45.2917 54.2498 48 54.2498C50.7083 54.2498 53 52.4998 53.875 50.0832H60.5C61.1875 50.0832 64.6667 50.2915 64.6667 54.2498V56.3332C64.6667 60.1457 61.4583 60.4998 60.5 60.4998H39.2917C38.4167 58.0832 36.125 56.3332 33.4167 56.3332C31.7591 56.3332 30.1694 56.9917 28.9973 58.1638C27.8251 59.3359 27.1667 60.9256 27.1667 62.5832C27.1667 64.2408 27.8251 65.8305 28.9973 67.0026C30.1694 68.1747 31.7591 68.8332 33.4167 68.8332C36.125 68.8332 38.4167 67.0832 39.2917 64.6665H60.5C63.8542 64.6665 68.8333 62.4373 68.8333 56.3332V54.2498C68.8333 48.1457 63.8542 45.9165 60.5 45.9165ZM62.5833 31.3332C63.1359 31.3332 63.6658 31.5527 64.0565 31.9434C64.4472 32.3341 64.6667 32.864 64.6667 33.4165C64.6667 33.969 64.4472 34.4989 64.0565 34.8896C63.6658 35.2803 63.1359 35.4998 62.5833 35.4998C62.0308 35.4998 61.5009 35.2803 61.1102 34.8896C60.7195 34.4989 60.5 33.969 60.5 33.4165C60.5 32.864 60.7195 32.3341 61.1102 31.9434C61.5009 31.5527 62.0308 31.3332 62.5833 31.3332ZM33.4167 64.6665C32.8641 64.6665 32.3342 64.447 31.9435 64.0563C31.5528 63.6656 31.3333 63.1357 31.3333 62.5832C31.3333 62.0306 31.5528 61.5007 31.9435 61.11C32.3342 60.7193 32.8641 60.4998 33.4167 60.4998C33.9692 60.4998 34.4991 60.7193 34.8898 61.11C35.2805 61.5007 35.5 62.0306 35.5 62.5832C35.5 63.1357 35.2805 63.6656 34.8898 64.0563C34.4991 64.447 33.9692 64.6665 33.4167 64.6665Z" fill="#2029BD"/>
</svg>
