<svg width="96" height="96" viewBox="0 0 96 96" fill="none" xmlns="http://www.w3.org/2000/svg">
<rect width="96" height="96" rx="6" fill="#F8FBFF"/>
<path d="M31.3333 50.0833H43.8333C44.3859 50.0833 44.9158 49.8638 45.3065 49.4731C45.6972 49.0824 45.9167 48.5525 45.9167 48V31.3333C45.9167 30.7808 45.6972 30.2509 45.3065 29.8602C44.9158 29.4695 44.3859 29.25 43.8333 29.25H31.3333C30.7808 29.25 30.2509 29.4695 29.8602 29.8602C29.4695 30.2509 29.25 30.7808 29.25 31.3333V48C29.25 48.5525 29.4695 49.0824 29.8602 49.4731C30.2509 49.8638 30.7808 50.0833 31.3333 50.0833ZM29.25 64.6667C29.25 65.2192 29.4695 65.7491 29.8602 66.1398C30.2509 66.5305 30.7808 66.75 31.3333 66.75H43.8333C44.3859 66.75 44.9158 66.5305 45.3065 66.1398C45.6972 65.7491 45.9167 65.2192 45.9167 64.6667V56.3333C45.9167 55.7808 45.6972 55.2509 45.3065 54.8602C44.9158 54.4695 44.3859 54.25 43.8333 54.25H31.3333C30.7808 54.25 30.2509 54.4695 29.8602 54.8602C29.4695 55.2509 29.25 55.7808 29.25 56.3333V64.6667ZM50.0833 64.6667C50.0833 65.2192 50.3028 65.7491 50.6935 66.1398C51.0842 66.5305 51.6141 66.75 52.1667 66.75H64.6667C65.2192 66.75 65.7491 66.5305 66.1398 66.1398C66.5305 65.7491 66.75 65.2192 66.75 64.6667V50.0833C66.75 49.5308 66.5305 49.0009 66.1398 48.6102C65.7491 48.2195 65.2192 48 64.6667 48H52.1667C51.6141 48 51.0842 48.2195 50.6935 48.6102C50.3028 49.0009 50.0833 49.5308 50.0833 50.0833V64.6667ZM52.1667 43.8333H64.6667C65.2192 43.8333 65.7491 43.6138 66.1398 43.2231C66.5305 42.8324 66.75 42.3025 66.75 41.75V31.3333C66.75 30.7808 66.5305 30.2509 66.1398 29.8602C65.7491 29.4695 65.2192 29.25 64.6667 29.25H52.1667C51.6141 29.25 51.0842 29.4695 50.6935 29.8602C50.3028 30.2509 50.0833 30.7808 50.0833 31.3333V41.75C50.0833 42.3025 50.3028 42.8324 50.6935 43.2231C51.0842 43.6138 51.6141 43.8333 52.1667 43.8333Z" fill="#2029BD"/>
</svg>
