<svg width="96" height="96" viewBox="0 0 96 96" fill="none" xmlns="http://www.w3.org/2000/svg">
<rect width="96" height="96" rx="6" fill="#F8FBFF"/>
<path d="M68 34.146C67.9995 33.3055 67.6733 32.4979 67.0898 31.8929C66.5063 31.288 65.711 30.9328 64.871 30.902V30.896H31.424V30.905C31.366 30.902 31.3085 30.896 31.25 30.896C30.5779 30.8964 29.9224 31.1053 29.3739 31.4937C28.8254 31.8821 28.4108 32.4311 28.1872 33.065C27.9636 33.6988 27.9421 34.3864 28.1255 35.033C28.309 35.6796 28.6884 36.2535 29.2115 36.6755L44.2815 51.745L44.281 61.0445V61.1215H44.2885C44.3011 61.4083 44.3863 61.6871 44.5361 61.932C44.6859 62.1769 44.8954 62.3797 45.145 62.5215L45.1405 62.5295L49.0765 64.802C49.1095 64.825 49.146 64.8415 49.1805 64.862L49.1945 64.87V64.8695C49.4455 65.0145 49.7335 65.104 50.0445 65.104C50.2688 65.1041 50.491 65.0599 50.6982 64.9741C50.9055 64.8883 51.0938 64.7625 51.2524 64.6039C51.411 64.4453 51.5368 64.257 51.6226 64.0497C51.7084 63.8424 51.7526 63.6203 51.7525 63.396C51.7525 63.351 51.7425 63.3085 51.7395 63.2645H51.7525V51.759L66.961 36.551L66.946 36.536C67.2781 36.2327 67.5434 35.8636 67.7249 35.4521C67.9064 35.0406 68.0001 34.5957 68 34.146ZM39.1245 37.396H39.1315L39.132 37.4035L39.1245 37.396Z" fill="#2029BD"/>
</svg>
