<svg width="96" height="96" viewBox="0 0 96 96" fill="none" xmlns="http://www.w3.org/2000/svg">
<rect width="96" height="96" rx="6" fill="#F8FBFF"/>
<path d="M50.0833 41.7498H61.5417L50.0833 30.2915V41.7498ZM35.5 27.1665H52.1667L64.6667 39.6665V64.6665C64.6667 65.7716 64.2277 66.8314 63.4463 67.6128C62.6649 68.3942 61.6051 68.8332 60.5 68.8332H35.5C34.3949 68.8332 33.3351 68.3942 32.5537 67.6128C31.7723 66.8314 31.3333 65.7716 31.3333 64.6665V31.3332C31.3333 29.0207 33.1875 27.1665 35.5 27.1665ZM52.1667 64.6665V62.5832C52.1667 59.8123 46.6042 58.4165 43.8333 58.4165C41.0625 58.4165 35.5 59.8123 35.5 62.5832V64.6665H52.1667ZM43.8333 47.9998C42.7283 47.9998 41.6685 48.4388 40.8871 49.2202C40.1057 50.0016 39.6667 51.0614 39.6667 52.1665C39.6667 53.2716 40.1057 54.3314 40.8871 55.1128C41.6685 55.8942 42.7283 56.3332 43.8333 56.3332C44.9384 56.3332 45.9982 55.8942 46.7796 55.1128C47.561 54.3314 48 53.2716 48 52.1665C48 51.0614 47.561 50.0016 46.7796 49.2202C45.9982 48.4388 44.9384 47.9998 43.8333 47.9998Z" fill="#2029BD"/>
</svg>
