<svg width="96" height="96" viewBox="0 0 96 96" fill="none" xmlns="http://www.w3.org/2000/svg">
<rect width="96" height="96" rx="6" fill="#F8FBFF"/>
<path d="M48 69.8332C36.4938 69.8332 27.1667 60.5061 27.1667 48.9998C27.1667 37.4936 36.4938 28.1665 48 28.1665C59.5062 28.1665 68.8333 37.4936 68.8333 48.9998C68.8333 60.5061 59.5062 69.8332 48 69.8332ZM40.7083 53.1665V57.3332H45.9167V61.4998H50.0833V57.3332H52.1667C53.548 57.3332 54.8728 56.7844 55.8495 55.8077C56.8263 54.8309 57.375 53.5062 57.375 52.1248C57.375 50.7435 56.8263 49.4187 55.8495 48.442C54.8728 47.4652 53.548 46.9165 52.1667 46.9165H43.8333C43.5571 46.9165 43.2921 46.8068 43.0968 46.6114C42.9014 46.4161 42.7917 46.1511 42.7917 45.8748C42.7917 45.5986 42.9014 45.3336 43.0968 45.1383C43.2921 44.9429 43.5571 44.8332 43.8333 44.8332H55.2917V40.6665H50.0833V36.4998H45.9167V40.6665H43.8333C42.452 40.6665 41.1272 41.2152 40.1505 42.192C39.1737 43.1687 38.625 44.4935 38.625 45.8748C38.625 47.2562 39.1737 48.5809 40.1505 49.5577C41.1272 50.5344 42.452 51.0832 43.8333 51.0832H52.1667C52.4429 51.0832 52.7079 51.1929 52.9032 51.3883C53.0986 51.5836 53.2083 51.8486 53.2083 52.1248C53.2083 52.4011 53.0986 52.6661 52.9032 52.8614C52.7079 53.0568 52.4429 53.1665 52.1667 53.1665H40.7083Z" fill="#2029BD"/>
</svg>
