<svg width="118" height="118" viewBox="0 0 118 118" fill="none" xmlns="http://www.w3.org/2000/svg">
<g clip-path="url(#clip0)">
<path d="M27.2622 50.8622V60.2579C27.2622 61.6868 26.3301 62.9489 24.9642 63.3693L10.6991 67.7583C7.96755 68.5991 6.10352 71.1229 6.10352 73.9807V97.6552C6.10352 102.15 9.747 105.793 14.2414 105.793H18.3103H61.0344V50.8622H27.2622Z" fill="#D29B6E"/>
<path d="M38.6552 75.2759C30.7782 75.2759 23.8335 71.1411 19.8422 64.9452L10.6991 67.7585C7.96755 68.599 6.10352 71.1229 6.10352 73.9807V97.6551C6.10352 102.15 9.747 105.793 14.2414 105.793H18.3103H61.0344V52.8965C61.0346 65.2051 50.9638 75.2759 38.6552 75.2759Z" fill="#656AD0"/>
<path d="M61.0346 52.8965C61.0346 65.2051 50.9638 75.2757 38.6554 75.2757C30.7784 75.2757 23.8337 71.1409 19.8424 64.9449L15.8131 66.1846C20.3974 74.0466 28.8982 79.3446 38.6554 79.3446C48.0933 79.3446 56.354 74.3856 61.0346 66.9466V52.8965Z" fill="#4248C3"/>
<path d="M40.6897 95.6208H20.3449C19.2213 95.6208 18.3103 94.7098 18.3103 93.5862V83.9075C18.3103 82.2889 17.6671 80.7362 16.5228 79.5915L7.24918 70.3179C6.52804 71.3741 6.10352 72.6364 6.10352 73.9807V97.6551C6.10352 102.15 9.747 105.793 14.2414 105.793H18.3103H46.793V101.724C46.793 98.3532 44.0606 95.6208 40.6897 95.6208Z" fill="#4248C3"/>
<path d="M55.9484 36.6208H55.6465L54.9311 22.3794H22.6336V36.6208H21.3622C19.6767 36.6208 18.3105 37.9872 18.3105 39.6724V43.7413C18.3105 45.4267 19.677 46.7929 21.3622 46.7929H23.2909L23.6214 48.8586C23.8701 50.4125 24.6733 51.8239 25.8823 52.8315L32.4147 58.2751C33.2921 59.0062 34.3984 59.4067 35.5408 59.4067H41.7702C42.9124 59.4067 44.0186 59.0062 44.8962 58.2751L51.4286 52.8315C52.6377 51.8241 53.4406 50.4127 53.6895 48.8586L54.02 46.7929H55.9484C57.6338 46.7929 59 45.4265 59 43.7413V39.6724C59 37.987 57.6336 36.6208 55.9484 36.6208Z" fill="#F0C087"/>
<path d="M54.9311 22.3793H34.5862H22.6336V36.6206H21.3622C19.6767 36.6206 18.3105 37.9871 18.3105 39.6723V43.7412C18.3105 45.4266 19.677 46.7928 21.3622 46.7928H23.2909L23.6214 48.8583C23.8701 50.4123 24.6733 51.8235 25.8823 52.8311L32.4147 58.2748C33.2921 59.0058 34.3984 59.4064 35.5404 59.4064H38.1126L35.2124 50.7062C34.7976 49.4616 34.586 48.1583 34.586 46.8463V34.5858C34.586 33.4623 35.497 32.5512 36.6206 32.5512C36.6206 32.5512 38.6551 32.5512 39.4689 31.5736C40.7089 32.2076 42.0986 32.5512 43.5379 32.5512C44.9774 32.5512 46.3666 32.2076 47.6068 31.5736C48.8467 32.2076 50.2364 32.5512 51.6757 32.5512C51.8804 32.5512 52.0799 32.5374 52.2782 32.5148L55.4402 32.5187L54.9311 22.3793Z" fill="#E6AF78"/>
<path d="M63.0689 21.9725C63.0689 19.7183 61.5328 17.8397 59.4561 17.2778C59.682 16.7157 59.8135 16.1052 59.8135 15.462C59.8135 12.7652 57.6276 10.5792 54.9308 10.5792C54.8315 10.5792 54.7389 10.6028 54.6409 10.6085C53.9765 8.70116 52.1818 7.32411 50.0481 7.32411C49.524 7.32411 49.0272 7.42183 48.557 7.58016C47.5148 6.43127 46.0248 5.69654 44.3514 5.69654C43.9197 5.69654 43.5035 5.7537 43.0995 5.8445C41.9347 4.75093 40.3786 4.06897 38.6549 4.06897C36.9312 4.06897 35.3751 4.75093 34.2103 5.8445C33.8063 5.7537 33.3896 5.69654 32.9584 5.69654C31.4053 5.69654 30.0006 6.3218 28.9729 7.32987C28.9448 7.32941 28.9181 7.32411 28.8895 7.32411C26.7558 7.32411 24.9611 8.70139 24.2967 10.6085C24.1988 10.6028 24.1059 10.5792 24.0068 10.5792C21.3101 10.5792 19.1241 12.7652 19.1241 15.462C19.1241 16.105 19.2559 16.7155 19.4813 17.2778C17.4048 17.8397 15.8689 19.7183 15.8689 21.9725C15.8689 23.2288 16.3566 24.3622 17.136 25.2276C16.3566 26.0928 15.8689 27.2265 15.8689 28.4828C15.8689 30.2899 16.8625 31.846 18.3239 32.686C18.3962 34.8695 20.178 36.6208 22.3794 36.6208H24.1582C24.9538 36.6208 25.6327 36.0456 25.7636 35.2608L26.8994 28.4463C27.0215 28.4556 27.1379 28.483 27.2624 28.483C28.963 28.483 30.4571 27.6118 31.3313 26.2931C32.2057 27.6116 33.6996 28.483 35.4002 28.483C37.1009 28.483 38.595 27.6118 39.4692 26.2931C40.3436 27.6116 41.8375 28.483 43.5381 28.483C45.2387 28.483 46.7328 27.6118 47.607 26.2931C48.4814 27.6116 49.9753 28.483 51.6759 28.483C51.7999 28.483 51.9168 28.4556 52.0389 28.4463L53.1747 35.2608C53.3056 36.0456 53.9845 36.6208 54.7801 36.6208H56.9656C59.2127 36.6208 61.0346 34.799 61.0346 32.5519C61.0346 32.5097 61.0233 32.4706 61.0221 32.4286C62.2572 31.5475 63.0691 30.1172 63.0691 28.483C63.0691 27.2267 62.5815 26.093 61.8018 25.2278C62.5812 24.3622 63.0689 23.2288 63.0689 21.9725Z" fill="#121998"/>
<path d="M37.4636 24.9377C35.5563 24.2732 34.1792 22.4786 34.1792 20.3449C34.1792 19.0886 34.6669 17.9549 35.4463 17.0898C34.6669 16.2246 34.1792 15.0909 34.1792 13.8346C34.1792 11.5804 35.7153 9.70186 37.7921 9.13997C37.5662 8.57786 37.4348 7.96735 37.4348 7.32411C37.4348 6.0699 37.9213 4.93784 38.6985 4.07335C38.6837 4.07335 38.6704 4.06897 38.6556 4.06897C36.9319 4.06897 35.3758 4.75093 34.211 5.8445C33.807 5.7537 33.3903 5.69654 32.9591 5.69654C31.406 5.69654 30.0013 6.3218 28.9736 7.32987C28.9455 7.32941 28.9188 7.32411 28.8902 7.32411C26.7565 7.32411 24.9619 8.70139 24.2974 10.6085C24.1995 10.6028 24.1066 10.5792 24.0075 10.5792C21.3108 10.5792 19.1248 12.7652 19.1248 15.462C19.1248 16.105 19.2566 16.7155 19.482 17.2778C17.4052 17.8397 15.8692 19.7183 15.8692 21.9725C15.8692 23.2288 16.3568 24.3622 17.1363 25.2276C16.3568 26.0928 15.8692 27.2265 15.8692 28.4828C15.8692 30.2899 16.8627 31.846 18.3241 32.686C18.3965 34.8695 20.1782 36.6208 22.3797 36.6208H24.1584C24.954 36.6208 25.633 36.0456 25.7639 35.2608L26.8996 28.4463C27.0218 28.4556 27.1382 28.483 27.2626 28.483C28.9633 28.483 30.4574 27.6118 31.3316 26.2931C32.206 27.6116 33.6999 28.483 35.4005 28.483C36.5236 28.483 37.5362 28.0771 38.3604 27.439C37.8029 26.8584 37.4351 26.0976 37.4351 25.2278C37.4346 25.1283 37.4549 25.0347 37.4636 24.9377Z" fill="#4248C3"/>
<path d="M34.5862 95.6207H40.6897C44.0606 95.6207 46.7933 98.3534 46.7933 101.724V105.793H34.5862V95.6207Z" fill="#E6AF78"/>
<path d="M111.897 91.5517H50.8621C47.4913 91.5517 44.7586 88.819 44.7586 85.4482V48.8276C44.7586 45.4568 47.4913 42.7241 50.8621 42.7241H111.897C115.268 42.7241 118 45.4568 118 48.8276V85.4484C118 88.8192 115.267 91.5517 111.897 91.5517Z" fill="#F3F5F8"/>
<path d="M93.5862 105.793L89.9879 78.8069C89.7182 76.7854 87.9941 75.2759 85.9545 75.2759H76.8037C74.7643 75.2759 73.0399 76.7854 72.7703 78.8069L69.1722 105.793V109.862H93.586V105.793H93.5862Z" fill="#CFD9E8"/>
<path d="M81.3792 67.1378C83.6264 67.1378 85.4481 65.3161 85.4481 63.0689C85.4481 60.8217 83.6264 59 81.3792 59C79.132 59 77.3103 60.8217 77.3103 63.0689C77.3103 65.3161 79.132 67.1378 81.3792 67.1378Z" fill="white"/>
<path d="M115.965 113.931H2.03458C0.911043 113.931 0 113.02 0 111.896V107.828C0 106.704 0.911043 105.793 2.03458 105.793H115.966C117.089 105.793 118 106.704 118 107.828V111.896C118 113.02 117.089 113.931 115.965 113.931Z" fill="#A9B9D1"/>
</g>
<defs>
<clipPath id="clip0">
<rect width="118" height="118" fill="white"/>
</clipPath>
</defs>
</svg>
