<svg width="105" height="105" viewBox="0 0 105 105" fill="none" xmlns="http://www.w3.org/2000/svg">
<path d="M0 52.4998V95.8397C0 99.7153 3.1418 102.857 7.01736 102.857H52.5V91.7132C60.2511 91.7132 66.5345 85.4296 66.5345 77.6786C66.5345 69.9277 60.2509 63.6441 52.5 63.6441V52.5H0V52.4998Z" fill="#656AD0"/>
<path d="M52.4998 2.14282H17.3424H7.01736C3.1418 2.14282 0 5.28462 0 9.15998V52.5H12.2153C12.2153 60.2511 18.4989 66.5345 26.2498 66.5345C34.0007 66.5345 40.2843 60.2509 40.2843 52.5H52.4996L52.4998 2.14282Z" fill="#F3F5F8"/>
<path d="M105 52.4998V9.16006C105 5.2845 101.858 2.1427 97.9826 2.1427H78.75H69.6048H52.5V13.3896C44.7489 13.3896 38.4655 19.6732 38.4655 27.4241C38.4655 35.175 44.7491 41.4586 52.5 41.4586V52.5H105V52.4998Z" fill="#2028BD"/>
<path d="M52.4998 102.857H97.9824C101.858 102.857 105 99.7152 105 95.8396V52.4998H92.877C92.877 52.4767 92.8788 52.4537 92.8788 52.4305C92.8788 44.6794 86.5952 38.396 78.8443 38.396C71.0934 38.396 64.8098 44.6796 64.8098 52.4305C64.8098 52.4537 64.8116 52.4767 64.8116 52.4998H52.5V102.857H52.4998Z" fill="#CFD9E8"/>
<path d="M44.6031 52.4998V95.8397C44.6031 99.7153 47.7449 102.857 51.6204 102.857H52.5002V91.7132C60.2514 91.7132 66.5347 85.4296 66.5347 77.6786C66.5347 69.9277 60.2511 63.6441 52.5002 63.6441V52.5H44.6031V52.4998Z" fill="#656AD0"/>
</svg>
