<svg width="148" height="148" viewBox="0 0 148 148" fill="none" xmlns="http://www.w3.org/2000/svg">
<g clip-path="url(#clip0)">
<path d="M10.4282 107.099V31.0589C10.4282 26.3125 14.2739 22.4651 19.0174 22.4651H128.983C133.726 22.4651 137.572 26.3128 137.572 31.0589V107.099L74 112.47L10.4282 107.099Z" fill="#CFD9E8"/>
<path d="M54.266 107.099H10.4282V112.47H54.266H87.7403H137.572V107.099H87.7403H54.266Z" fill="#CFD9E8"/>
<path d="M20.4656 107.099V33.9943C20.4656 33.1702 21.1337 32.5024 21.9575 32.5024H126.042C126.866 32.5024 127.534 33.1705 127.534 33.9943V107.098L74 112.47L20.4656 107.099Z" fill="#F3F5F8"/>
<path d="M20.4656 117.209H57.2832L70.7567 119.894L84.7231 117.209H127.534V107.099H20.4656V117.209Z" fill="#CFD9E8"/>
<path d="M6.25911 122.85H141.741C148 122.85 147.978 117.382 147.998 113.943C147.988 113.128 147.325 112.47 146.508 112.47H89.2325C88.4086 112.47 87.7406 113.138 87.7406 113.961V114.191C87.7406 115.857 86.3898 117.208 84.7234 117.208H57.2836C55.6171 117.208 54.2663 115.857 54.2663 114.191V113.961C54.2663 113.138 53.5983 112.47 52.7745 112.47H1.49189C0.674418 112.47 0.0121763 113.128 0.00177002 113.943C0.0222935 117.382 3.54946e-05 122.85 6.25911 122.85Z" fill="#656AD0"/>
<path d="M141.741 120.164H6.25907C2.80217 120.164 0 117.362 0 113.905V119.276C0 122.733 2.80217 125.535 6.25907 125.535H141.741C145.198 125.535 148 122.733 148 119.276V113.905C148 117.362 145.198 120.164 141.741 120.164Z" fill="#4248C3"/>
<path d="M74 94.1044C86.5609 94.1044 98.2373 81.801 98.2373 69.8009C96.8998 57.5961 86.5609 48.0986 74 48.0986C61.4391 48.0986 51.1002 57.5961 49.7627 69.8009C49.7627 81.801 61.4391 94.1044 74 94.1044Z" fill="#2029BD"/>
<path d="M74 91.5027C61.4391 91.5027 51.1002 82.0053 49.7627 69.8008C49.6658 70.683 49.6124 71.5782 49.6124 72.4862C49.6124 85.955 60.5311 96.8738 74 96.8738C87.4688 96.8738 98.3876 85.955 98.3876 72.4862C98.3876 71.5782 98.3338 70.683 98.2373 69.8008C96.8998 82.0053 86.5609 91.5027 74 91.5027Z" fill="#2029BD"/>
<path d="M71.2831 63.4643C70.298 62.7393 68.907 63.4426 68.907 64.6659V77.8856L75.2488 76.4634L79.8937 69.8008L71.2831 63.4643Z" fill="#ECEAEC"/>
<path d="M68.9067 77.8856V80.3065C68.9067 81.5298 70.2977 82.2331 71.2828 81.5081L81.9099 73.6878C82.7202 73.0915 82.7202 71.8809 81.9099 71.2845L79.8934 69.8008L68.9067 77.8856Z" fill="#DAD8DB"/>
</g>
<defs>
<clipPath id="clip0">
<rect width="148" height="148" fill="white"/>
</clipPath>
</defs>
</svg>
